<svg width="110" height="120" viewBox="0 0 110 120" fill="none" xmlns="http://www.w3.org/2000/svg">
<path d="M55 45C55 43.6739 55.5268 42.4021 56.4645 41.4645C57.4021 40.5268 58.6739 40 60 40C61.3261 40 62.5979 40.5268 63.5355 41.4645C64.4732 42.4021 65 43.6739 65 45C65 46.3261 64.4732 47.5979 63.5355 48.5355C62.5979 49.4732 61.3261 50 60 50C58.6739 50 57.4021 49.4732 56.4645 48.5355C55.5268 47.5979 55 46.3261 55 45ZM110 25V95C109.992 101.628 107.356 107.982 102.669 112.669C97.9822 117.356 91.628 119.992 85 120H35C30.1412 119.994 25.3895 118.571 21.3261 115.908C17.2626 113.244 14.0635 109.453 12.12 105H5C3.67392 105 2.40215 104.473 1.46447 103.536C0.526784 102.598 0 101.326 0 100C0 98.6739 0.526784 97.4021 1.46447 96.4645C2.40215 95.5268 3.67392 95 5 95H10V85H5C3.67392 85 2.40215 84.4732 1.46447 83.5355C0.526784 82.5979 0 81.3261 0 80C0 78.6739 0.526784 77.4021 1.46447 76.4645C2.40215 75.5268 3.67392 75 5 75H10V65H5C3.67392 65 2.40215 64.4732 1.46447 63.5355C0.526784 62.5979 0 61.3261 0 60C0 58.6739 0.526784 57.4021 1.46447 56.4645C2.40215 55.5268 3.67392 55 5 55H10V45H5C3.67392 45 2.40215 44.4732 1.46447 43.5355C0.526784 42.5979 0 41.3261 0 40C0 38.6739 0.526784 37.4021 1.46447 36.4645C2.40215 35.5268 3.67392 35 5 35H10V25H5C3.67392 25 2.40215 24.4732 1.46447 23.5355C0.526784 22.5979 0 21.3261 0 20C0 18.6739 0.526784 17.4021 1.46447 16.4645C2.40215 15.5268 3.67392 15 5 15H12.12C14.0635 10.5468 17.2626 6.75646 21.3261 4.0925C25.3895 1.42853 30.1412 0.00639188 35 0L85 0C91.628 0.00793929 97.9822 2.64441 102.669 7.3311C107.356 12.0178 109.992 18.372 110 25V25ZM45 45C45 48.9782 46.5804 52.7936 49.3934 55.6066C52.2064 58.4196 56.0218 60 60 60C63.9782 60 67.7936 58.4196 70.6066 55.6066C73.4196 52.7936 75 48.9782 75 45C75 41.0218 73.4196 37.2064 70.6066 34.3934C67.7936 31.5804 63.9782 30 60 30C56.0218 30 52.2064 31.5804 49.3934 34.3934C46.5804 37.2064 45 41.0218 45 45ZM85 90C83.945 56.96 36.045 56.97 35 90C35 91.3261 35.5268 92.5979 36.4645 93.5355C37.4021 94.4732 38.6739 95 40 95C41.3261 95 42.5979 94.4732 43.5355 93.5355C44.4732 92.5979 45 91.3261 45 90C45 86.0218 46.5804 82.2064 49.3934 79.3934C52.2064 76.5804 56.0218 75 60 75C63.9782 75 67.7936 76.5804 70.6066 79.3934C73.4196 82.2064 75 86.0218 75 90C75 91.3261 75.5268 92.5979 76.4645 93.5355C77.4021 94.4732 78.6739 95 80 95C81.3261 95 82.5979 94.4732 83.5355 93.5355C84.4732 92.5979 85 91.3261 85 90Z" fill="#58B14B"/>
</svg>
