<svg width="24" height="24" viewBox="0 0 24 24" fill="none" xmlns="http://www.w3.org/2000/svg">
<path d="M1.172 19.0324C0.421803 19.7824 0.00022655 20.7997 0 21.8604L0 23.9134H2.053C3.11378 23.9132 4.13103 23.4916 4.881 22.7414L18.224 9.39845L14.515 5.68945L1.172 19.0324Z" fill="#58B14B"/>
<path d="M23.1448 0.768933C22.9013 0.525168 22.6122 0.331788 22.2939 0.199849C21.9756 0.0679106 21.6344 0 21.2898 0C20.9453 0 20.6041 0.0679106 20.2858 0.199849C19.9675 0.331788 19.6783 0.525168 19.4348 0.768933L15.9288 4.27593L19.6378 7.98493L23.1448 4.47893C23.3886 4.23542 23.582 3.94625 23.7139 3.62796C23.8459 3.30967 23.9138 2.96849 23.9138 2.62393C23.9138 2.27938 23.8459 1.9382 23.7139 1.61991C23.582 1.30161 23.3886 1.01244 23.1448 0.768933V0.768933Z" fill="#58B14B"/>
</svg>
