<svg width="120" height="120" viewBox="0 0 120 120" fill="none" xmlns="http://www.w3.org/2000/svg">
<path d="M49.3907 90.6101C55.2468 96.4699 64.7442 96.473 70.604 90.6169C70.6064 90.6145 70.6085 90.6124 70.6108 90.6101L86.6657 74.5551C88.5178 72.5069 88.3586 69.345 86.3104 67.493C84.4033 65.7687 81.4994 65.7717 79.5958 67.5L64.9659 82.1351L65.0008 5.00016C65.0006 2.23852 62.7621 0 60.0007 0C57.2392 0 55.0007 2.23852 55.0007 4.99992L54.9557 82.0399L40.4057 67.5C38.452 65.5477 35.2856 65.5488 33.3332 67.5026C31.3809 69.4563 31.3821 72.6227 33.3358 74.5751L49.3907 90.6101Z" fill="#58B14B"/>
<path d="M115 80C112.239 80 110 82.2385 110 84.9999V105C110 107.761 107.762 110 105 110H15C12.2386 110 10.0001 107.761 10.0001 105V85.0002C10.0001 82.2387 7.76156 80.0002 5.00016 80.0002C2.23852 80 0 82.2387 0 85.0002V105C0 113.284 6.71578 120 15 120H105C113.284 120 120 113.284 120 105V85.0002C120 82.2387 117.761 80 115 80Z" fill="#58B14B"/>
</svg>
