<svg width="120" height="120" viewBox="0 0 120 120" fill="none" xmlns="http://www.w3.org/2000/svg">
<path d="M114.145 45.8559L94.7496 26.4609C92.7633 24.5425 89.598 24.5976 87.6797 26.5839C85.8082 28.5215 85.8082 31.5934 87.6797 33.531L107.075 52.926C107.651 53.5136 108.154 54.1684 108.575 54.876C108.5 54.876 108.44 54.8359 108.365 54.8359L29.9447 54.996C27.1833 54.996 24.9448 57.2345 24.9448 59.9959C24.9448 62.7574 27.1833 64.9959 29.9447 64.9959L108.335 64.8358C108.475 64.8358 108.59 64.7657 108.725 64.7559C108.281 65.6017 107.719 66.3796 107.055 67.0659L87.6598 86.4609C85.6734 88.3792 85.6184 91.5445 87.5367 93.5308C89.4551 95.5171 92.6203 95.5722 94.6066 93.6538C94.6484 93.6135 94.6894 93.5725 94.7297 93.5308L114.125 74.1358C121.932 66.3257 121.932 53.6657 114.125 45.8559H114.145Z" fill="#58B14B"/>
<path d="M34.9999 110H24.9998C16.7156 110 9.99984 103.284 9.99984 94.9999V25.0001C9.99984 16.7159 16.7156 10.0001 24.9998 10.0001H34.9999C37.7613 10.0001 39.9998 7.76156 39.9998 5.00016C39.9998 2.23875 37.7616 0 34.9999 0H24.9998C11.1998 0.0166406 0.0166406 11.1998 0 25.0001V95.0002C0.0166406 108.8 11.1998 119.984 25.0001 120H35.0002C37.7616 120 40.0001 117.761 40.0001 115C40.0001 112.239 37.7616 110 34.9999 110Z" fill="#58B14B"/>
</svg>
