<svg width="75" height="90" viewBox="0 0 75 90" fill="none" xmlns="http://www.w3.org/2000/svg">
<path d="M61.333 50.6653H55.9996V45.3319C55.9996 44.6247 55.7187 43.9464 55.2186 43.4463C54.7185 42.9462 54.0402 42.6653 53.333 42.6653C52.6257 42.6653 51.9474 42.9462 51.4474 43.4463C50.9473 43.9464 50.6663 44.6247 50.6663 45.3319V50.6653H45.333C44.6257 50.6653 43.9475 50.9462 43.4474 51.4463C42.9473 51.9464 42.6663 52.6247 42.6663 53.3319C42.6663 54.0392 42.9473 54.7174 43.4474 55.2175C43.9475 55.7176 44.6257 55.9986 45.333 55.9986H50.6663V61.3319C50.6663 62.0392 50.9473 62.7174 51.4474 63.2175C51.9474 63.7176 52.6257 63.9986 53.333 63.9986C54.0402 63.9986 54.7185 63.7176 55.2186 63.2175C55.7187 62.7174 55.9996 62.0392 55.9996 61.3319V55.9986H61.333C62.0402 55.9986 62.7185 55.7176 63.2186 55.2175C63.7187 54.7174 63.9996 54.0392 63.9996 53.3319C63.9996 52.6247 63.7187 51.9464 63.2186 51.4463C62.7185 50.9462 62.0402 50.6653 61.333 50.6653Z" fill="#58B14B"/>
<path d="M56 16H48C48 11.7565 46.3143 7.68687 43.3137 4.68629C40.3131 1.68571 36.2435 0 32 0C27.7565 0 23.6869 1.68571 20.6863 4.68629C17.6857 7.68687 16 11.7565 16 16H8C5.87827 16 3.84344 16.8429 2.34315 18.3431C0.842855 19.8434 0 21.8783 0 24L0 50.6667C0.00423429 54.2016 1.41035 57.5905 3.90992 60.0901C6.40949 62.5897 9.79841 63.9958 13.3333 64H37.3333C38.0406 64 38.7189 63.7191 39.219 63.219C39.719 62.7189 40 62.0406 40 61.3333C40 60.6261 39.719 59.9478 39.219 59.4477C38.7189 58.9476 38.0406 58.6667 37.3333 58.6667H13.3333C11.2116 58.6667 9.17677 57.8238 7.67648 56.3235C6.17619 54.8232 5.33333 52.7884 5.33333 50.6667V24C5.33333 23.2928 5.61428 22.6145 6.11438 22.1144C6.61448 21.6143 7.29276 21.3333 8 21.3333H16V26.6667C16 27.3739 16.281 28.0522 16.781 28.5523C17.2811 29.0524 17.9594 29.3333 18.6667 29.3333C19.3739 29.3333 20.0522 29.0524 20.5523 28.5523C21.0524 28.0522 21.3333 27.3739 21.3333 26.6667V21.3333H42.6667V26.6667C42.6667 27.3739 42.9476 28.0522 43.4477 28.5523C43.9478 29.0524 44.6261 29.3333 45.3333 29.3333C46.0406 29.3333 46.7189 29.0524 47.219 28.5523C47.7191 28.0522 48 27.3739 48 26.6667V21.3333H56C56.7072 21.3333 57.3855 21.6143 57.8856 22.1144C58.3857 22.6145 58.6667 23.2928 58.6667 24V37.3333C58.6667 38.0406 58.9476 38.7189 59.4477 39.219C59.9478 39.719 60.6261 40 61.3333 40C62.0406 40 62.7189 39.719 63.219 39.219C63.7191 38.7189 64 38.0406 64 37.3333V24C64 21.8783 63.1571 19.8434 61.6569 18.3431C60.1566 16.8429 58.1217 16 56 16ZM21.3333 16C21.3333 13.171 22.4571 10.4579 24.4575 8.45753C26.4579 6.45714 29.171 5.33333 32 5.33333C34.829 5.33333 37.5421 6.45714 39.5425 8.45753C41.5429 10.4579 42.6667 13.171 42.6667 16H21.3333Z" fill="#58B14B"/>
<path d="M2.14041 85V68.536H5.42841L12.0524 77.416C12.1484 77.528 12.2684 77.688 12.4124 77.896C12.5564 78.088 12.6924 78.28 12.8204 78.472C12.9484 78.664 13.0364 78.816 13.0844 78.928H13.2044C13.2044 78.656 13.2044 78.392 13.2044 78.136C13.2044 77.864 13.2044 77.624 13.2044 77.416V68.536H16.5884V85H13.3004L6.53241 75.904C6.37241 75.68 6.20441 75.432 6.02841 75.16C5.85241 74.888 5.72441 74.68 5.64441 74.536H5.52441C5.52441 74.776 5.52441 75.016 5.52441 75.256C5.52441 75.48 5.52441 75.696 5.52441 75.904V85H2.14041ZM24.0262 85.288C22.7462 85.288 21.7302 84.936 20.9782 84.232C20.2262 83.528 19.8502 82.392 19.8502 80.824V72.376H23.1862V80.272C23.1862 80.688 23.2342 81.04 23.3302 81.328C23.4262 81.6 23.5622 81.824 23.7382 82C23.9302 82.176 24.1622 82.304 24.4342 82.384C24.7062 82.464 25.0102 82.504 25.3462 82.504C25.8422 82.504 26.2902 82.384 26.6902 82.144C27.0902 81.904 27.4022 81.576 27.6262 81.16C27.8502 80.728 27.9622 80.248 27.9622 79.72V72.376H31.2982V85H28.5622L28.3222 83.272H28.1542C27.8502 83.672 27.4902 84.024 27.0742 84.328C26.6742 84.632 26.2182 84.864 25.7062 85.024C25.1942 85.2 24.6342 85.288 24.0262 85.288ZM40.0962 85.288C38.7042 85.288 37.5362 85.056 36.5922 84.592C35.6482 84.112 34.9362 83.384 34.4562 82.408C33.9762 81.432 33.7362 80.192 33.7362 78.688C33.7362 77.168 33.9762 75.928 34.4562 74.968C34.9362 73.992 35.6402 73.272 36.5682 72.808C37.5122 72.328 38.6642 72.088 40.0242 72.088C41.3042 72.088 42.3842 72.32 43.2642 72.784C44.1442 73.232 44.8082 73.936 45.2562 74.896C45.7042 75.84 45.9282 77.064 45.9282 78.568V79.432H37.1202C37.1522 80.168 37.2642 80.792 37.4562 81.304C37.6642 81.816 37.9762 82.2 38.3922 82.456C38.8242 82.696 39.3922 82.816 40.0962 82.816C40.4802 82.816 40.8242 82.768 41.1282 82.672C41.4482 82.576 41.7202 82.432 41.9442 82.24C42.1682 82.048 42.3442 81.808 42.4722 81.52C42.6002 81.232 42.6642 80.904 42.6642 80.536H45.9282C45.9282 81.336 45.7842 82.032 45.4962 82.624C45.2082 83.216 44.8082 83.712 44.2962 84.112C43.7842 84.496 43.1682 84.792 42.4482 85C41.7442 85.192 40.9602 85.288 40.0962 85.288ZM37.1682 77.32H42.4962C42.4962 76.84 42.4322 76.424 42.3042 76.072C42.1922 75.72 42.0322 75.432 41.8242 75.208C41.6162 74.984 41.3602 74.824 41.0562 74.728C40.7682 74.616 40.4402 74.56 40.0722 74.56C39.4642 74.56 38.9522 74.664 38.5362 74.872C38.1362 75.064 37.8242 75.368 37.6002 75.784C37.3922 76.184 37.2482 76.696 37.1682 77.32ZM51.6398 85L46.9358 72.376H50.4638L52.3118 77.704C52.4078 77.976 52.5198 78.336 52.6478 78.784C52.7918 79.232 52.9358 79.704 53.0798 80.2C53.2238 80.696 53.3438 81.144 53.4398 81.544H53.5598C53.6718 81.176 53.7918 80.752 53.9198 80.272C54.0478 79.776 54.1758 79.304 54.3038 78.856C54.4478 78.392 54.5678 78.008 54.6638 77.704L56.5118 72.376H59.8718L55.1438 85H51.6398ZM67.3088 85.288C65.9328 85.288 64.7648 85.056 63.8048 84.592C62.8448 84.112 62.1168 83.384 61.6208 82.408C61.1248 81.416 60.8768 80.176 60.8768 78.688C60.8768 77.168 61.1248 75.928 61.6208 74.968C62.1168 73.992 62.8448 73.272 63.8048 72.808C64.7648 72.328 65.9328 72.088 67.3088 72.088C68.7168 72.088 69.8928 72.328 70.8368 72.808C71.7968 73.272 72.5248 73.992 73.0208 74.968C73.5168 75.928 73.7648 77.168 73.7648 78.688C73.7648 80.176 73.5168 81.416 73.0208 82.408C72.5248 83.384 71.7968 84.112 70.8368 84.592C69.8928 85.056 68.7168 85.288 67.3088 85.288ZM67.3088 82.696C68.0448 82.696 68.6288 82.56 69.0608 82.288C69.5088 82.016 69.8368 81.6 70.0448 81.04C70.2528 80.48 70.3568 79.792 70.3568 78.976V78.4C70.3568 77.584 70.2528 76.896 70.0448 76.336C69.8368 75.776 69.5088 75.36 69.0608 75.088C68.6288 74.8 68.0448 74.656 67.3088 74.656C66.5888 74.656 66.0048 74.8 65.5568 75.088C65.1248 75.36 64.8048 75.776 64.5968 76.336C64.3888 76.896 64.2848 77.584 64.2848 78.4V78.976C64.2848 79.792 64.3888 80.48 64.5968 81.04C64.8048 81.6 65.1248 82.016 65.5568 82.288C66.0048 82.56 66.5888 82.696 67.3088 82.696Z" fill="#3C3C3C"/>
</svg>
