<svg width="120" height="120" viewBox="0 0 120 120" fill="none" xmlns="http://www.w3.org/2000/svg">
<path d="M120 45C120 41.0218 118.42 37.2064 115.607 34.3934C112.794 31.5804 108.978 30 105 30H90C90 22.0435 86.8393 14.4129 81.2132 8.7868C75.5871 3.1607 67.9565 0 60 0C52.0435 0 44.4129 3.1607 38.7868 8.7868C33.1607 14.4129 30 22.0435 30 30H15C11.0218 30 7.20644 31.5804 4.3934 34.3934C1.58035 37.2064 0 41.0218 0 45L0 95C0.00793929 101.628 2.64441 107.982 7.3311 112.669C12.0178 117.356 18.372 119.992 25 120H95C101.628 119.992 107.982 117.356 112.669 112.669C117.356 107.982 119.992 101.628 120 95V45ZM40 30C40 24.6957 42.1071 19.6086 45.8579 15.8579C49.6086 12.1071 54.6957 10 60 10C65.3043 10 70.3914 12.1071 74.1421 15.8579C77.8929 19.6086 80 24.6957 80 30H40Z" fill="#58B14B"/>
</svg>
